HIERARCHY
ROOT root
{
	OFFSET	0	13.1	24.9
	CHANNELS 6  Xposition Yposition Zposition Xrotation Yrotation Zrotation
	JOINT spine_1
	{
		OFFSET	0	9.99999	0
		CHANNELS 3  Xrotation Yrotation Zrotation
		JOINT spine_2
		{
			OFFSET	0	112	-10
			CHANNELS 3  Xrotation Yrotation Zrotation
			JOINT spine_3
			{
				OFFSET	0	206.5	19.3
				CHANNELS 3  Xrotation Yrotation Zrotation
				JOINT spine_4
				{
					OFFSET	0	110.4	14.6
					CHANNELS 3  Xrotation Yrotation Zrotation
					JOINT neck_1
					{
						OFFSET	0	71.8	-50.3
						CHANNELS 3  Xrotation Yrotation Zrotation
						JOINT neck_2
						{
							OFFSET	0	86.2	-25.8
							CHANNELS 3  Xrotation Yrotation Zrotation
							JOINT head_ee
							{
								OFFSET	0	179.8	-8.7
								CHANNELS 3  Xrotation Yrotation Zrotation
								End Site
								{
									OFFSET	1	0	0
								}
							}
						}
					}
					JOINT left_clavicle
					{
						OFFSET	-43.2	22.4	-70.8
						CHANNELS 3  Xrotation Yrotation Zrotation
						JOINT left_shoulder
						{
							OFFSET	-93.9	-5.79999	48.7
							CHANNELS 3  Xrotation Yrotation Zrotation
							JOINT left_elbow
							{
								OFFSET	-291.4	-30.8	15.2
								CHANNELS 3  Xrotation Yrotation Zrotation
								JOINT left_lowarm_twist
								{
									OFFSET	-110.7	-3.89999	13.6
									CHANNELS 3  Xrotation Yrotation Zrotation
									JOINT left_hand
									{
										OFFSET	-110.7	-3.89999	13.6
										CHANNELS 3  Xrotation Yrotation Zrotation
										JOINT left_ee
										{
											OFFSET	-80.8	-5.10001	12.1
											CHANNELS 3  Xrotation Yrotation Zrotation
											End Site
											{
												OFFSET	1	0	0
											}
										}
									}
								}
							}
						}
					}
					JOINT right_clavicle
					{
						OFFSET	43.2	22.4	-70.8
						CHANNELS 3  Xrotation Yrotation Zrotation
						JOINT right_shoulder
						{
							OFFSET	93.9	-5.79999	48.7
							CHANNELS 3  Xrotation Yrotation Zrotation
							JOINT right_elbow
							{
								OFFSET	291.4	-30.8	15.2
								CHANNELS 3  Xrotation Yrotation Zrotation
								JOINT right_lowarm_twist
								{
									OFFSET	110.7	-3.89999	13.6
									CHANNELS 3  Xrotation Yrotation Zrotation
									JOINT right_hand
									{
										OFFSET	110.7	-3.89999	13.6
										CHANNELS 3  Xrotation Yrotation Zrotation
										JOINT right_ee
										{
											OFFSET	80.8	-5.10001	12.1
											CHANNELS 3  Xrotation Yrotation Zrotation
											End Site
											{
												OFFSET	1	0	0
											}
										}
									}
								}
							}
						}
					}
				}
			}
		}
	}
	JOINT left_hip
	{
		OFFSET	-82.8	-127.5	0.300001
		CHANNELS 3  Xrotation Yrotation Zrotation
		JOINT left_knee
		{
			OFFSET	-28.2	-396.7	2.2
			CHANNELS 3  Xrotation Yrotation Zrotation
			JOINT left_ankle
			{
				OFFSET	-11.7	-411.3	35.4
				CHANNELS 3  Xrotation Yrotation Zrotation
				JOINT left_toes
				{
					OFFSET	0	-60	-88.6
					CHANNELS 3  Xrotation Yrotation Zrotation
					JOINT left_foot_ee
					{
						OFFSET	-22.5	-16.5	-42.2
						CHANNELS 3  Xrotation Yrotation Zrotation
						End Site
						{
							OFFSET	1	0	0
						}
					}
				}
			}
		}
	}
	JOINT right_hip
	{
		OFFSET	82.8	-127.5	0.300001
		CHANNELS 3  Xrotation Yrotation Zrotation
		JOINT right_knee
		{
			OFFSET	28.2	-396.7	2.2
			CHANNELS 3  Xrotation Yrotation Zrotation
			JOINT right_ankle
			{
				OFFSET	11.7	-411.3	35.4
				CHANNELS 3  Xrotation Yrotation Zrotation
				JOINT right_toes
				{
					OFFSET	0	-60	-88.6
					CHANNELS 3  Xrotation Yrotation Zrotation
					JOINT right_foot_ee
					{
						OFFSET	22.5	-16.5	-42.2
						CHANNELS 3  Xrotation Yrotation Zrotation
						End Site
						{
							OFFSET	1	0	0
						}
					}
				}
			}
		}
	}
}
MOTION
Frames: 6
Frame Time: 0.02
1372.05 701.618 -1475.22 -9.5067566531 28.4010580324 4.50605969123 1.8941 -0.0343358 0.125176 1.89411 -0.0422315 0.122737 1.89402 -0.0633755 0.113276 1.894 -0.0446903 0.121863 3.99974 2.20593 -1.20462 4.03521 4.85401 -1.2274 -0.0 0.0 -0.0 9.65374 -18.765 18.7155 13.5968 2.14692 56.362 3.71666 -61.4753 2.2106 2.12671 0.0700624 -0.26258 5.35067 -14.5265 31.1366 -0.0 0.0 -0.0 5.9307 -10.9986 -11.4606 -19.1652 12.3896 -68.4152 0.476674 13.2861 -0.0555165 -24.8597 1.50299 -2.77552 -0.851287 -9.65368 1.46306 0.0 0.0 0.0 1.06086 3.28395 2.91093 -11.7376 0.30259 1.77277 22.8088 -1.39621 -3.10483 33.0736 -0.0 -0.0 -0.0 0.0 -0.0 37.4226 -21.0586 -1.90712 -0.137615 -0.00564188 -0.0203647 -8.93682 -2.55619 -1.33798 26.2587 -0.0 -0.0 0.0 0.0 0.0 
1334.68029367 693.163 -1542.48666001 -9.4804257564 30.9357057276 4.07568458655 1.83881 -0.125408 -0.16601 1.83882 -0.11459 -0.173654 1.83917 -0.0817162 -0.191335 1.83914 -0.110908 -0.176028 6.4047 2.09445 -2.64399 6.48815 5.89393 -3.00363 -0.0 0.0 -0.0 9.36152 -14.4358 18.3051 3.08858 0.204275 57.7592 4.03668 -63.4126 2.49435 2.67032 0.0864014 -0.330094 6.102 -17.6932 35.067 -0.0 0.0 -0.0 5.91142 -13.6826 -11.3583 -17.3714 13.2704 -69.0246 0.513528 14.2727 -0.0642946 -24.9478 1.51038 -2.78405 -0.842813 -9.69246 1.39178 0.0 0.0 0.0 -1.61431 2.37404 3.36634 -14.5487 0.320734 2.20365 24.5598 -1.03313 -3.30948 34.6334 -0.0 -0.0 -0.0 0.0 -0.0 35.413 -21.6348 -1.43836 -5.87975 -0.197045 -0.880461 -11.7538 2.97158 -1.79332 27.1207 -0.0 -0.0 0.0 0.0 0.0 
1335.64931687 693.163 -1543.01593474 -9.40089475817 30.124703045 3.91912918951 1.83881 -0.125408 -0.16601 1.83882 -0.11459 -0.173654 1.83917 -0.0817162 -0.191335 1.83914 -0.110908 -0.176028 6.4047 2.09445 -2.64399 6.48815 5.89393 -3.00363 -0.0 0.0 -0.0 9.36152 -14.4358 18.3051 3.08858 0.204275 57.7592 4.03668 -63.4126 2.49435 2.67032 0.0864014 -0.330094 6.102 -17.6932 35.067 -0.0 0.0 -0.0 5.91142 -13.6826 -11.3583 -17.3714 13.2704 -69.0246 0.513528 14.2727 -0.0642946 -24.9478 1.51038 -2.78405 -0.842813 -9.69246 1.39178 0.0 0.0 0.0 -1.61431 2.37404 3.36634 -14.5487 0.320734 2.20365 24.5598 -1.03313 -3.30948 34.6334 -0.0 -0.0 -0.0 0.0 -0.0 35.413 -21.6348 -1.43836 -5.87975 -0.197045 -0.880461 -11.7538 2.97158 -1.79332 27.1207 -0.0 -0.0 0.0 0.0 0.0 
1324.99648663 691.387 -1564.7544011 -8.6684297209 30.2755584407 3.41833362143 1.747 0.0248414 -0.174569 1.74701 0.0358993 -0.172634 1.7469 0.066433 -0.163334 1.74687 0.0398037 -0.171776 3.89862 3.21753 -2.97992 4.019 8.13594 -3.17013 -0.0 0.0 -0.0 8.28545 -12.1865 16.0495 -0.0402529 -3.8106 60.1918 3.61236 -60.7868 2.11926 2.14136 0.0705114 -0.264397 6.20539 -18.1087 35.6131 -0.0 0.0 -0.0 5.82837 -14.409 -11.1973 -14.9936 13.8682 -70.1273 0.52822 14.6637 -0.0679654 -24.849 1.50209 -2.77448 -0.780128 -9.56611 1.04446 0.0 0.0 0.0 -1.58884 1.98948 3.24138 -16.6437 0.3205 2.52507 24.0758 -0.438295 -3.24827 34.542 -0.0 -0.0 -0.0 0.0 -0.0 34.9378 -21.5572 -1.39599 -9.48427 -0.272797 -1.42832 -8.8814 2.90796 -1.34949 26.6682 -0.0 -0.0 0.0 0.0 0.0 
1291.55378501 697.27 -1607.39385775 -7.68011819473 31.2628864754 2.31182986025 1.9274 -0.14363 0.0382212 1.92739 -0.145771 0.0290042 1.92732 -0.148604 0.00271802 1.92735 -0.146309 0.0261531 2.07144 3.81991 -2.95657 2.196 9.19377 -2.95771 -0.0 0.0 -0.0 7.83001 -7.84534 15.2103 -4.42635 -7.63152 62.2355 2.52912 -51.3956 1.21721 1.47854 0.0497436 -0.182283 6.33573 -18.7046 36.2486 -0.0 0.0 -0.0 5.39494 -16.9715 -10.4174 -12.0237 15.1556 -70.5504 0.581123 16.0597 -0.0819812 -25.2703 1.53755 -2.8152 -0.710287 -9.56149 0.598159 0.0 0.0 0.0 -1.60155 2.24768 3.6232 -21.4672 0.275318 3.26356 24.8988 -0.575737 -3.34552 35.1543 -0.0 -0.0 -0.0 0.0 -0.0 32.6586 -21.1644 -0.337459 -12.5065 -0.309653 -1.89053 -5.43141 6.23373 -0.831642 28.2103 -0.0 -0.0 0.0 0.0 0.0 
1294.14650168 697.27 -1608.93841403 -7.59192667162 30.1554465816 2.13914388625 1.9274 -0.14363 0.0382212 1.92739 -0.145771 0.0290042 1.92732 -0.148604 0.00271802 1.92735 -0.146309 0.0261531 2.07144 3.81991 -2.95657 2.196 9.19377 -2.95771 -0.0 0.0 -0.0 7.83001 -7.84534 15.2103 -4.42635 -7.63152 62.2355 2.52912 -51.3956 1.21721 1.47854 0.0497436 -0.182283 6.33573 -18.7046 36.2486 -0.0 0.0 -0.0 5.39494 -16.9715 -10.4174 -12.0237 15.1556 -70.5504 0.581123 16.0597 -0.0819812 -25.2703 1.53755 -2.8152 -0.710287 -9.56149 0.598159 0.0 0.0 0.0 -1.60155 2.24768 3.6232 -21.4672 0.275318 3.26356 24.8988 -0.575737 -3.34552 35.1543 -0.0 -0.0 -0.0 0.0 -0.0 32.6586 -21.1644 -0.337459 -12.5065 -0.309653 -1.89053 -5.43141 6.23373 -0.831642 28.2103 -0.0 -0.0 0.0 0.0 0.0 
